/* XPM */
static char *exit_xpm[] = {
"32 32 6 1",
". c None",
"x c #2C1B4A",
"o c #5A3B8C",
"O c #9D75DE",
"+ c #E3D9FA",
"@ c #FFFFFF",
"................................",
"................................",
"............xxxxxx..............",
"..........xxooooooxx............",
".........xooooooooox............",
"........xooooOOOoooox...........",
".......xoooOO+++OOooox..........",
".......xooO+++++Oooox...........",
".......xooO++@++Oooox...........",
".......xooO+++++Oooox...........",
".......xooO+++++Oooox...........",
".......xooO+++++Oooox...........",
".......xooO+++++Oooox...........",
".......xooO++@++Oooox...........",
".......xooO+++++Oooox...........",
".......xooO+++++Oooox...........",
".......xoooOO+++OOooox..........",
"........xooooOOOoooox...........",
".........xooooooooox............",
"..........xxooooooxx............",
"............xxxxxx..............",
"................................",
"................................",
"................................",
"................................",
"................................",
"................................",
"................................",
"................................",
"................................",
"................................",
"................................"
};