/* XPM */
static char *player_xpm[] = {
"32 32 7 1",
". c None",
"x c #222222",
"o c #555555",
"O c #999999",
"+ c #DDDDDD",
"@ c #89572A",
"# c #AC220F",
"................................",
"................................",
"...........xxxxxxx..............",
"..........x#######x.............",
".........x###xxx###x............",
"..........xxxx..xxxx............",
"..........x++x..x++x............",
".........x+OOx..xOO+x...........",
".........xOOOO..OOOOx...........",
".........xoooo..oooox...........",
"..........xxxxxxxxxx............",
"..........x+OOxxOO+x............",
".........x+OOOxxOOO+x...........",
".........xOOOOxxOOOOx...........",
".........xoooo..oooox...........",
"..........xxxx..xxxx............",
".........x+OOO..OOO+x...........",
".........xOOOO..OOOOx...........",
".........xoooo..oooox...........",
"..........xxxx..xxxx............",
".........x+OOO..OOO+x...........",
".........xOOOO..OOOOx...........",
".........xoooo..oooox...........",
"..........xxxx..xxxx............",
".........x@@@@..@@@@x...........",
".........xxxxxx..xxxxxx.........",
"................................",
"................................",
"................................",
"................................",
"................................",
"................................"
};